<svg width="813" height="1019" viewBox="0 0 813 1019" fill="none" xmlns="http://www.w3.org/2000/svg">
<g id="undraw_outer_space_re_u9vd 1">
<path id="smoke" d="M386.157 648.479L394.177 665.715C387.658 664.72 381.596 670.056 381.459 676.909C381.323 683.762 387.138 690.891 393.658 691.866C392.412 697.186 387.035 699.532 382.367 701.682C377.7 703.833 372.67 707.399 373.017 713.068C373.296 717.621 377.223 721.64 381.394 723.255C385.565 724.871 389.941 724.623 394.165 724.352C387.764 730.769 387.14 742.832 392.762 751.486C398.383 760.14 409.61 764.4 418.016 761.069C412.076 768.15 413.367 781.118 420.738 788.426C428.168 795.793 438.937 796.506 448.352 795.73C472.325 793.787 495.169 785.111 514.023 770.786C521.22 765.305 527.943 758.859 532.048 750.45C536.154 742.042 537.364 731.396 533.54 721.827C534.571 733.814 547.089 743.281 558.35 743.811C569.611 744.341 579.443 738.262 587.798 731.329C598.909 722.11 609.197 709.187 607.672 693.242C606.917 685.349 603.32 677.757 599.792 670.404L592.952 656.148C590.19 650.392 587.366 644.54 583.21 639.71C579.054 634.88 573.285 631.141 567.512 631.177C568.832 625.397 570.158 619.402 569.052 613.261C567.946 607.121 563.71 600.762 557.95 599.324C550.618 597.494 544.405 603.978 537.033 603.367C529.939 602.779 524.076 595.955 517.187 593.251C514.35 592.075 511.218 591.718 508.172 592.223C505.127 592.728 502.302 594.073 500.042 596.093C495.675 600.179 493.855 607.083 495.422 613.615C496.795 619.338 500.448 624.384 502.666 629.903C504.883 635.422 505.227 642.518 500.968 645.532C495.829 649.169 488.007 644.22 483.992 638.232C479.977 632.245 477.672 624.995 472.594 619.96C466.602 614.017 457.222 612.624 451.052 616.761C444.882 620.898 442.522 630.163 445.633 638.039C448.176 644.478 454.002 650.992 451.981 657.056C449.846 663.465 440.501 662.653 434.865 658.124C429.228 653.595 425.486 646.773 419.918 642.142C414.263 637.439 406.879 635.378 400.396 636.694C397.108 637.425 394.065 638.938 391.547 641.094C389.03 643.25 387.12 645.979 385.993 649.029" fill="url(#paint0_linear_1_2)"/>
<g id="spaceship">
<path id="Vector" d="M466.928 618.19L448.891 625.585C446.18 626.766 443.105 627.132 440.136 626.626C437.517 626.08 435.748 624.667 435.283 622.749L431.086 605.452C430.293 602.189 433.356 598.329 438.367 596.274L448.328 592.191C453.34 590.136 458.659 590.561 460.974 593.199L473.248 607.184C474.61 608.735 474.692 610.839 473.477 612.958C472 615.286 469.7 617.124 466.928 618.19V618.19Z" fill="#3F3D56"/>
<path id="Vector_2" d="M411.473 642.467L393.436 649.862C390.725 651.043 387.649 651.409 384.68 650.903C382.062 650.357 380.292 648.944 379.827 647.026L375.63 629.729C374.838 626.467 377.901 622.606 382.912 620.551L392.873 616.468C397.885 614.413 403.204 614.838 405.519 617.476L417.793 631.462C419.155 633.012 419.237 635.117 418.021 637.235C416.545 639.563 414.245 641.401 411.473 642.467V642.467Z" fill="#3F3D56"/>
<path id="Vector_3" d="M112.93 356.966L110.467 356.489L111.006 354.316L109.364 353.999L108.824 356.172L106.36 355.696L106 357.145L108.464 357.622L107.925 359.796L109.567 360.113L110.107 357.939L112.57 358.415L112.93 356.966Z" fill="#E6E6E6"/>
<path id="Vector_4" d="M521.49 598.115L503.453 605.51C500.741 606.691 497.666 607.057 494.697 606.551C492.079 606.005 490.309 604.592 489.844 602.674L485.647 585.377C484.855 582.114 487.917 578.254 492.929 576.199L502.89 572.116C507.902 570.061 513.22 570.486 515.535 573.124L527.81 587.109C529.171 588.66 529.254 590.764 528.038 592.883C526.561 595.211 524.261 597.049 521.49 598.115V598.115Z" fill="#3F3D56"/>
<path id="Vector_5" d="M387.647 359.442C376.685 363.945 376.504 384.116 379.942 390.652L386.171 402.482L425.878 386.204L419.649 374.374C416.205 367.841 398.617 354.954 387.647 359.442Z" fill="#3F3D56"/>
<path id="Vector_6" d="M280.944 529.288C280.245 529.288 279.557 529.14 278.937 528.855C278.317 528.57 277.785 528.157 277.384 527.652C276.984 527.147 276.728 526.564 276.637 525.953C276.546 525.341 276.624 524.72 276.864 524.141C277.058 523.668 277.357 523.233 277.743 522.863C278.129 522.492 278.595 522.193 279.113 521.982L484.171 437.916C484.688 437.704 485.247 437.584 485.817 437.563C486.386 437.542 486.955 437.619 487.49 437.792C488.026 437.965 488.517 438.229 488.937 438.569C489.357 438.909 489.697 439.319 489.937 439.775C490.421 440.697 490.47 441.75 490.075 442.704C489.68 443.658 488.872 444.434 487.829 444.863H487.829L282.771 528.929C282.199 529.165 281.575 529.288 280.944 529.288V529.288Z" fill="#3F3D56"/>
<path id="Vector_7" d="M441.345 393.748L382.73 417.778L474.677 592.4L533.292 568.37L441.345 393.748Z" fill="#E6E6E6"/>
<path id="Vector_8" d="M221.309 173.929C210.347 178.432 210.166 198.603 213.603 205.139L219.833 216.969L259.54 200.691L253.31 188.861C249.866 182.328 232.279 169.441 221.309 173.929Z" fill="#3F3D56"/>
<path id="Vector_9" d="M290.648 237.939L232.032 261.969L417.893 614.947L476.508 590.917L290.648 237.939Z" fill="#E6E6E6"/>
<path id="Vector_10" d="M351.466 419.898L344.889 407.128L348.675 405.587L355.233 418.316L450.181 604.077L446.399 605.628" fill="#3F3D56"/>
<path id="Vector_11" d="M425.649 409.284L419.072 396.514L422.858 394.973L429.415 407.702L524.364 593.463L520.581 595.014" fill="#3F3D56"/>
<path id="Vector_12" d="M318.314 266.187L238.893 298.746C233.836 291.805 218.594 256.235 222.016 245.681L219.447 235.617L274.286 213.135L281.626 221.103C292.522 224.053 313.733 257.463 318.314 266.187Z" fill="#E6E6E6"/>
<path id="Vector_13" d="M276.577 213.566L219.987 236.766C217.898 237.622 215.674 237.307 215.018 236.063C214.925 235.883 214.866 235.691 214.846 235.494L211.917 207.924C211.792 206.744 212.936 205.406 214.685 204.689L252.214 189.304C253.963 188.587 255.86 188.678 256.801 189.524L278.791 209.279C279.916 210.289 279.305 212.019 277.427 213.142C277.157 213.303 276.873 213.445 276.577 213.566V213.566Z" fill="#E6E6E6"/>
<path id="Vector_14" d="M320.963 429.563C320.35 429.564 319.74 429.501 319.144 429.374C318.305 429.22 317.517 428.899 316.839 428.435C316.162 427.971 315.615 427.377 315.238 426.698L280.64 360.991C279.209 358.271 281.131 354.792 284.925 353.237L335.586 332.467C339.381 330.911 343.633 331.859 345.066 334.579L379.664 400.286C380.009 400.978 380.171 401.731 380.136 402.486C380.101 403.242 379.871 403.981 379.463 404.646C378.574 406.151 377.135 407.348 375.378 408.04L324.718 428.809C323.543 429.298 322.262 429.555 320.963 429.563Z" fill="#3F3D56"/>
<path id="Vector_15" d="M327.891 439.509L269.276 463.539L361.223 638.161L419.838 614.131L327.891 439.509Z" fill="#E6E6E6"/>
<path id="Vector_16" d="M255.678 216.446L238.489 223.493C235.172 224.853 230.697 222.587 228.514 218.443C226.332 214.298 227.256 209.819 230.573 208.459L247.762 201.412C251.079 200.053 255.554 202.319 257.736 206.463C259.918 210.607 258.995 215.086 255.678 216.446Z" fill="#3F3D56"/>
<path id="Vector_17" d="M275.336 404.734C264.374 409.237 264.194 429.408 267.631 435.944L273.86 447.774L313.567 431.496L307.338 419.666C303.894 413.132 286.307 400.246 275.336 404.734Z" fill="#3F3D56"/>
<path id="Vector_18" d="M478.257 465.669C476.207 466.507 473.864 466.593 471.742 465.908C469.62 465.224 467.893 463.825 466.939 462.018L456.801 442.766C455.852 440.958 455.755 438.891 456.532 437.02C457.309 435.149 458.895 433.627 460.943 432.787C462.991 431.948 465.332 431.86 467.454 432.543C469.575 433.226 471.302 434.624 472.256 436.43L482.394 455.682C483.343 457.491 483.441 459.558 482.665 461.43C481.89 463.303 480.304 464.827 478.257 465.669V465.669Z" fill="#3F3D56"/>
<path id="Vector_19" d="M305.832 536.434C303.782 537.272 301.44 537.358 299.318 536.673C297.196 535.989 295.469 534.59 294.514 532.783L284.377 513.531C283.428 511.723 283.331 509.656 284.108 507.785C284.884 505.914 286.471 504.392 288.519 503.552C290.566 502.713 292.908 502.625 295.029 503.308C297.151 503.991 298.878 505.389 299.832 507.194L309.97 526.447C310.919 528.256 311.017 530.323 310.241 532.195C309.466 534.068 307.88 535.592 305.832 536.434Z" fill="#3F3D56"/>
<path id="Vector_20" d="M462.64 423.605L394.667 451.471C390.339 445.531 377.293 415.088 380.223 406.055L381.661 395.951L422.246 378.381L431.24 385.02C443.911 381.239 462.537 408.945 462.64 423.605Z" fill="#E6E6E6"/>
<path id="Vector_21" d="M431.082 421.673L413.893 428.72C410.576 430.08 405.529 426.727 402.644 421.248C399.758 415.768 400.11 410.203 403.427 408.843L420.616 401.796C423.933 400.436 428.98 403.789 431.865 409.268C434.751 414.747 434.399 420.313 431.082 421.673Z" fill="#3F3D56"/>
<path id="Vector_22" d="M285.304 457.934L278.726 445.164L282.513 443.623L289.07 456.352L384.018 642.113L380.236 643.663" fill="#3F3D56"/>
<path id="Vector_23" d="M350.329 468.897L282.356 496.763C272.328 492.194 257.003 462.3 267.912 451.347L269.35 441.243L309.936 423.673L318.929 430.311C328.255 432.836 346.409 461.43 350.329 468.897Z" fill="#E6E6E6"/>
<path id="Vector_24" d="M317.373 464.307L300.183 471.354C296.866 472.714 292.133 469.958 289.634 465.211C287.134 460.464 287.799 455.494 291.116 454.134L308.305 447.087C311.622 445.727 316.356 448.484 318.855 453.231C321.355 457.978 320.69 462.947 317.373 464.307Z" fill="#3F3D56"/>
<path id="Vector_25" d="M490.082 486.308L536.372 496.881L564.763 546.086L516.765 547.748L490.082 486.308Z" fill="#E6E6E6"/>
<path id="Vector_26" d="M383.238 415.372L408.715 437.864L473.421 561.307L461.508 570.389L383.238 415.372Z" fill="#CCCCCC"/>
<path id="Vector_27" d="M327.843 435.761L329.842 467.512L390.916 592.388L406.531 590.613L327.843 435.761Z" fill="#CCCCCC"/>
<path id="Vector_28" d="M326.176 564.032L301.246 600.035L319.624 652.815L355.425 624.556L326.176 564.032Z" fill="#E6E6E6"/>
</g>
</g>
<defs>
<linearGradient id="paint0_linear_1_2" x1="490.411" y1="592" x2="490.411" y2="795.976" gradientUnits="userSpaceOnUse">
<stop stop-color="#10E3F0"/>
<stop offset="1" stop-color="#F776DA" stop-opacity="0.84"/>
</linearGradient>
</defs>
</svg>
