<svg width="824" height="1159" viewBox="0 0 824 1159" fill="none" xmlns="http://www.w3.org/2000/svg">
<g id="undraw_outer_space_re_u9vd 1">
<g id="spaceship">
<path id="Vector" d="M649.811 657.355L631.53 665.765C628.782 667.109 625.666 667.525 622.656 666.95C620.002 666.328 618.209 664.722 617.738 662.54L613.484 642.867C612.681 639.156 615.785 634.765 620.864 632.428L630.96 627.783C636.039 625.447 641.43 625.929 643.777 628.931L656.217 644.837C657.597 646.601 657.68 648.994 656.449 651.403C654.952 654.052 652.621 656.142 649.811 657.355Z" fill="#3F3D56"/>
<path id="Vector_2" d="M593.606 684.968L575.325 693.378C572.577 694.722 569.46 695.138 566.451 694.563C563.797 693.941 562.004 692.334 561.532 690.153L557.279 670.48C556.475 666.768 559.579 662.377 564.659 660.041L574.755 655.396C579.834 653.059 585.225 653.542 587.571 656.543L600.012 672.45C601.391 674.213 601.475 676.607 600.243 679.016C598.746 681.664 596.415 683.755 593.606 684.968Z" fill="#3F3D56"/>
<path id="Vector_3" d="M291.024 360.242L288.527 359.699L289.074 357.228L287.41 356.866L286.862 359.338L284.365 358.797L284 360.445L286.497 360.987L285.951 363.46L287.615 363.82L288.163 361.348L290.659 361.89L291.024 360.242Z" fill="#E6E6E6"/>
<path id="Vector_4" d="M705.111 634.523L686.83 642.933C684.082 644.277 680.966 644.693 677.956 644.118C675.302 643.496 673.509 641.889 673.038 639.708L668.784 620.035C667.981 616.323 671.085 611.933 676.164 609.596L686.26 604.951C691.339 602.614 696.73 603.097 699.076 606.098L711.517 622.005C712.897 623.768 712.98 626.162 711.748 628.571C710.252 631.219 707.921 633.31 705.111 634.523Z" fill="#3F3D56"/>
<path id="Vector_5" d="M569.458 363.057C558.347 368.179 558.164 391.121 561.648 398.555L567.962 412.011L608.206 393.496L601.892 380.04C598.402 372.61 580.577 357.952 569.458 363.057Z" fill="#3F3D56"/>
<path id="Vector_6" d="M461.311 556.24C460.603 556.24 459.905 556.07 459.277 555.746C458.649 555.423 458.109 554.953 457.703 554.379C457.297 553.804 457.038 553.141 456.946 552.446C456.854 551.751 456.933 551.044 457.176 550.385C457.373 549.847 457.676 549.353 458.067 548.931C458.458 548.51 458.93 548.169 459.455 547.93L667.287 452.314C667.811 452.073 668.378 451.936 668.955 451.912C669.533 451.888 670.109 451.976 670.652 452.173C671.195 452.369 671.693 452.669 672.118 453.056C672.544 453.443 672.888 453.91 673.132 454.428C673.622 455.477 673.672 456.674 673.272 457.759C672.871 458.844 672.053 459.727 670.995 460.215H670.995L463.162 555.831C462.583 556.1 461.951 556.239 461.311 556.24Z" fill="#3F3D56"/>
<path id="Vector_7" d="M623.883 402.077L564.474 429.408L657.665 628.021L717.074 600.69L623.883 402.077Z" fill="#E6E6E6"/>
<path id="Vector_8" d="M400.869 152.056C389.759 157.179 389.575 180.121 393.059 187.555L399.373 201.01L439.617 182.495L433.304 169.04C429.813 161.609 411.988 146.952 400.869 152.056Z" fill="#3F3D56"/>
<path id="Vector_9" d="M471.146 224.861L411.738 252.192L600.113 653.666L659.521 626.334L471.146 224.861Z" fill="#E6E6E6"/>
<path id="Vector_10" d="M532.787 431.82L526.121 417.295L529.959 415.542L536.605 430.021L632.838 641.303L629.004 643.066" fill="#3F3D56"/>
<path id="Vector_11" d="M607.974 419.747L601.308 405.222L605.145 403.469L611.791 417.948L708.024 629.23L704.191 630.994" fill="#3F3D56"/>
<path id="Vector_12" d="M499.187 256.99L418.691 294.023C413.566 286.128 398.117 245.671 401.586 233.667L398.982 222.22L454.562 196.65L462.002 205.712C473.045 209.067 494.544 247.068 499.187 256.99Z" fill="#E6E6E6"/>
<path id="Vector_13" d="M456.885 197.14L399.529 223.527C397.412 224.501 395.158 224.143 394.493 222.727C394.398 222.523 394.339 222.304 394.319 222.08L391.35 190.723C391.223 189.38 392.383 187.859 394.156 187.043L432.192 169.544C433.965 168.729 435.887 168.832 436.842 169.794L459.129 192.263C460.269 193.413 459.65 195.38 457.747 196.657C457.473 196.841 457.185 197.002 456.885 197.14Z" fill="#E6E6E6"/>
<path id="Vector_14" d="M501.871 442.812C501.25 442.814 500.631 442.742 500.028 442.597C499.177 442.423 498.378 442.058 497.692 441.53C497.006 441.002 496.451 440.326 496.069 439.553L461.003 364.819C459.552 361.725 461.5 357.769 465.346 356L516.692 332.377C520.539 330.606 524.848 331.685 526.3 334.779L561.366 409.513C561.717 410.3 561.881 411.156 561.845 412.016C561.81 412.875 561.576 413.715 561.163 414.472C560.262 416.184 558.803 417.545 557.023 418.333L505.677 441.955C504.487 442.511 503.188 442.804 501.871 442.812Z" fill="#3F3D56"/>
<path id="Vector_15" d="M508.893 454.125L449.485 481.456L542.676 680.069L602.084 652.738L508.893 454.125Z" fill="#E6E6E6"/>
<path id="Vector_16" d="M435.703 200.416L418.281 208.431C414.919 209.977 410.384 207.4 408.172 202.686C405.96 197.973 406.896 192.878 410.258 191.331L427.68 183.316C431.042 181.77 435.577 184.347 437.789 189.061C440.001 193.774 439.065 198.869 435.703 200.416Z" fill="#3F3D56"/>
<path id="Vector_17" d="M455.628 414.571C444.517 419.694 444.334 442.636 447.818 450.07L454.131 463.525L494.376 445.01L488.062 431.555C484.572 424.124 466.746 409.467 455.628 414.571Z" fill="#3F3D56"/>
<path id="Vector_18" d="M661.293 483.879C659.216 484.832 656.841 484.93 654.691 484.152C652.54 483.373 650.789 481.782 649.822 479.727L639.547 457.829C638.586 455.773 638.488 453.423 639.275 451.295C640.062 449.167 641.67 447.435 643.745 446.48C645.821 445.525 648.194 445.425 650.344 446.202C652.494 446.979 654.245 448.569 655.212 450.623L665.486 472.521C666.449 474.578 666.548 476.929 665.762 479.059C664.976 481.188 663.369 482.922 661.293 483.879Z" fill="#3F3D56"/>
<path id="Vector_19" d="M486.536 564.366C484.458 565.318 482.084 565.416 479.933 564.638C477.783 563.86 476.032 562.268 475.065 560.213L464.79 538.316C463.829 536.259 463.73 533.909 464.518 531.781C465.305 529.653 466.913 527.921 468.988 526.967C471.064 526.012 473.437 525.912 475.587 526.688C477.737 527.465 479.488 529.055 480.455 531.109L490.729 553.007C491.692 555.064 491.791 557.415 491.005 559.545C490.218 561.674 488.611 563.408 486.536 564.366Z" fill="#3F3D56"/>
<path id="Vector_20" d="M645.465 436.036L576.572 467.731C572.186 460.974 558.964 426.348 561.933 416.075L563.39 404.582L604.525 384.598L613.641 392.149C626.483 387.85 645.361 419.361 645.465 436.036Z" fill="#E6E6E6"/>
<path id="Vector_21" d="M613.481 433.838L596.059 441.853C592.697 443.4 587.582 439.587 584.657 433.354C581.733 427.122 582.089 420.792 585.451 419.245L602.873 411.23C606.235 409.683 611.35 413.496 614.274 419.729C617.199 425.961 616.842 432.291 613.481 433.838Z" fill="#3F3D56"/>
<path id="Vector_22" d="M465.73 475.081L459.063 460.556L462.901 458.804L469.547 473.282L565.78 684.564L561.947 686.328" fill="#3F3D56"/>
<path id="Vector_23" d="M531.635 487.55L462.742 519.245C452.579 514.049 437.046 480.047 448.103 467.589L449.56 456.097L490.695 436.113L499.81 443.663C509.262 446.535 527.662 479.058 531.635 487.55Z" fill="#E6E6E6"/>
<path id="Vector_24" d="M498.232 482.331L480.811 490.346C477.449 491.892 472.651 488.757 470.118 483.358C467.585 477.959 468.259 472.306 471.621 470.76L489.043 462.745C492.405 461.198 497.202 464.333 499.735 469.732C502.269 475.132 501.594 480.784 498.232 482.331Z" fill="#3F3D56"/>
<path id="Vector_25" d="M673.279 507.353L720.195 519.378L748.97 575.344L700.323 577.234L673.279 507.353Z" fill="#E6E6E6"/>
<path id="Vector_26" d="M564.99 426.672L590.811 452.254L656.393 592.657L644.318 602.986L564.99 426.672Z" fill="#CCCCCC"/>
<path id="Vector_27" d="M508.845 449.862L510.871 485.976L572.771 628.008L588.597 625.989L508.845 449.862Z" fill="#CCCCCC"/>
<path id="Vector_28" d="M507.155 595.756L481.887 636.705L500.514 696.737L536.8 664.595L507.155 595.756Z" fill="#E6E6E6"/>
</g>
<path id="smoke" d="M563.454 695.103L572.265 714.665C565.103 713.536 558.443 719.593 558.293 727.371C558.144 735.148 564.531 743.241 571.694 744.346C570.325 750.385 564.418 753.047 559.291 755.488C554.163 757.929 548.637 761.977 549.019 768.411C549.325 773.578 553.64 778.139 558.222 779.973C562.804 781.807 567.611 781.525 572.252 781.217C565.22 788.501 564.534 802.192 570.71 812.014C576.885 821.837 589.218 826.672 598.453 822.891C591.928 830.928 593.346 845.646 601.443 853.941C609.606 862.302 621.437 863.112 631.779 862.231C658.116 860.026 683.211 850.178 703.924 833.92C711.83 827.699 719.216 820.382 723.726 810.839C728.236 801.296 729.565 789.213 725.364 778.352C726.497 791.957 740.249 802.702 752.62 803.303C764.991 803.905 775.792 797.005 784.971 789.137C797.177 778.673 808.479 764.006 806.804 745.909C805.974 736.95 802.022 728.333 798.146 719.987L790.632 703.807C787.599 697.274 784.496 690.632 779.931 685.15C775.365 679.669 769.027 675.425 762.685 675.465C764.135 668.905 765.592 662.101 764.377 655.131C763.162 648.162 758.509 640.945 752.18 639.313C744.126 637.236 737.301 644.595 729.202 643.902C721.408 643.234 714.967 635.489 707.399 632.42C704.283 631.085 700.842 630.68 697.496 631.253C694.151 631.826 691.047 633.352 688.565 635.646C683.767 640.283 681.767 648.119 683.489 655.533C684.997 662.028 689.011 667.756 691.447 674.02C693.883 680.283 694.261 688.337 689.582 691.758C683.937 695.886 675.343 690.269 670.932 683.473C666.522 676.678 663.989 668.449 658.411 662.734C651.828 655.989 641.523 654.408 634.745 659.104C627.967 663.799 625.375 674.315 628.792 683.253C631.586 690.562 637.986 697.956 635.767 704.838C633.421 712.112 623.155 711.191 616.963 706.05C610.771 700.909 606.659 693.166 600.542 687.91C594.33 682.572 586.218 680.233 579.097 681.727C575.484 682.557 572.141 684.275 569.376 686.721C566.61 689.168 564.512 692.265 563.274 695.727" fill="url(#paint0_linear_1_2)"/>
</g>
<defs>
<linearGradient id="paint0_linear_1_2" x1="677.985" y1="631" x2="677.985" y2="862.51" gradientUnits="userSpaceOnUse">
<stop stop-color="#10E3F0"/>
<stop offset="1" stop-color="#F776DA" stop-opacity="0.84"/>
</linearGradient>
</defs>
</svg>
